<?xml version="1.0" encoding="utf-8"?>
<!-- Generator: Adobe Illustrator 22.1.0, SVG Export Plug-In . SVG Version: 6.00 Build 0)  -->
<svg version="1.1" id="Layer_1" xmlns="http://www.w3.org/2000/svg" xmlns:xlink="http://www.w3.org/1999/xlink" x="0px" y="0px"
	 viewBox="0 0 2372.3 618.6" style="enable-background:new 0 0 2372.3 618.6;" xml:space="preserve">
<style type="text/css">
	.blue{fill:#0a69c6;}
	.dark-blue{fill:#0A1C48;}
</style>
<g>
	<path class="dark-blue" d="M740.1,474.1c-14.3,2.7-30.9,4.8-49.8,4.8c-73.1,0-90.7-35.4-90.7-116.3c0-81,17.7-116.3,90.7-116.3
		c18.4,0,35.5,1.8,49.8,4.5l-1.9,15.8c-11.7-1.8-25.5-3.6-37.9-3.6c-73.5,0-81.3,32.9-81.3,99.6c0,66.9,9.4,99.6,81.3,99.6
		c12.7,0,25.3-1.8,38-3.5L740.1,474.1z"/>
	<path class="dark-blue" d="M865.3,302.4h18.5l-81.1,238.4h-18.6l26.3-76.6l-70.5-161.8h19.8l59.2,136.9L865.3,302.4z"/>
	<path class="dark-blue" d="M915.4,235h18.2v72.2c16.8-4.4,33.9-7.2,52.2-7.2c51.6,0,71.9,23,71.9,89.4c0,67.7-22.9,89.5-77.5,89.5
		c-21.6,0-45.1-3.7-64.2-13.5c-0.5-9.2-0.7-19.2-0.7-28.9V235z M933.6,425.2c0,8.4,0.2,20.2,0.5,29c13.6,6.1,31.8,8.8,46.2,8.8
		c44,0,59.1-20.8,59.1-73.6c0-54.4-11.4-73.4-60.7-73.4c-15.2,0-33.4,3.5-45.1,7.5V425.2z"/>
	<path class="dark-blue" d="M1090.6,389.4c0-63.2,18.9-89.4,75.7-89.4c57.5,0,74.4,29.8,74.4,75.7c0,5.3-0.2,12.6-0.5,18
		c-20,3.3-61,7.1-85.5,8.1l-45.6,1.9c3.2,36.5,11.3,59.1,62.1,59.1c22.5,0,43.1-2.5,61-5.1l1.9,15.7c-20.3,3-39.3,5.6-72.1,5.6
		C1105.7,478.9,1090.6,441.1,1090.6,389.4z M1159.3,386.3c16.2-0.8,44.9-3,62.7-5.2c0.3-4,0.4-9.7,0.4-13.9
		c0-30.8-14.3-51.4-56.1-51.4c-46.7,0-57.5,22.3-57.5,72.8L1159.3,386.3z"/>
	<path class="dark-blue" d="M1276.4,476.6V342.4c0-9.7,0.2-19.7,0.7-28.9c19.1-9.8,42.6-13.5,64.2-13.5c5.8,0,11.2,0.2,16.2,0.8l-1.7,16.3
		c-4.4-0.4-9.3-0.6-14.6-0.6c-14.4,0-32.6,2.6-46.2,8.7c-0.3,8.7-0.6,20.6-0.6,29v122.4H1276.4z"/>
	<path class="dark-blue" d="M1386.4,476.6V301.9c0-51.6,37.5-53.8,77.9-53.8c15.9,0,43.5,0.8,60.2,1.6v30.2h-61.1
		c-31.8,0-37.2,6.4-37.2,35.3v29.9h93.9v31h-93.9v100.5H1386.4z"/>
	<path class="dark-blue" d="M1623.2,478.9c-57,0-77.6-24.3-77.6-89.5c0-65.2,20.5-89.4,77.6-89.4c57,0,77.6,25.3,77.6,89.4
		C1700.7,453.6,1680.2,478.9,1623.2,478.9z M1623.2,449.4c31.5,0,40.3-13.8,40.3-60c0-46.1-8.8-59.9-40.3-59.9
		c-31.5,0-40.1,11.8-40.1,59.9C1583.1,437.6,1591.7,449.4,1623.2,449.4z"/>
	<path class="dark-blue" d="M1769.9,476.6h-37.1V347.3c0-11.4,0.5-21.4,1.5-32c19.5-11,45.7-15.3,68.5-15.3c5.8,0,11.2,0.2,16.2,0.7
		l-2.9,29.5c-3.9-0.5-8.3-0.7-13.3-0.7c-11.2,0-24.3,2-31.8,5.9c-0.8,7-1.1,15.6-1.1,23.4V476.6z"/>
	<path class="dark-blue" d="M1952.5,333.6c-9.7-1.8-20-3.6-30.2-3.6c-45.9,0-50.3,12.6-50.3,57.8c0,42.7,1.9,60.7,50.5,60.7
		c10.1,0,20-1.9,29.9-3.8l3.3,28.3c-14.8,3.4-32.3,6.1-54.1,6.1c-58.1,0-67.4-43.9-67.4-91.2c0-57,13.2-87.7,77-87.7
		c18.4,0,32.5,2.6,44.2,6.1L1952.5,333.6z"/>
	<path class="dark-blue" d="M2012.1,408c2,33.6,19.5,41.4,46.5,41.4c23.3,0,44.6-2.2,62.5-4.5l3.1,27.7c-18.9,3-41.7,6.4-75.2,6.4
		c-58.4,0-73.8-37.9-73.8-89.5c0-63.2,19.6-89.4,77.6-89.4c62.7,0,76.1,33.1,76.1,85c0,4.2-0.1,8.5-0.5,12.9
		c-20,3.5-61.5,7.6-85.6,8.7L2012.1,408z M2046.1,381c12.8-0.6,33-2.2,45-3.9c0.3-2.2,0.4-5.9,0.4-8.1c0-26.5-9.8-41-38.7-41
		c-36.7,0-41.7,23.2-41.7,54.7L2046.1,381z"/>
	<path class="dark-blue" d="M2243.1,428.9c0-20-17.9-21.6-34.1-26.6c-28-8.5-54.6-15.6-54.6-53.1c0-38.2,26.9-49.2,61.4-49.2
		c24.1,0,41.1,2.1,61.9,6.7l-3.5,27.3c-13.6-2.5-28.2-4.7-43.5-4.7c-14.1,0-39.2,0-39.2,17.8c0,18.3,21.1,21.5,35.6,26.4
		c29.7,10.1,53.8,15.7,53.8,54c0,40.2-29.7,51.4-67.9,51.4c-18.7,0-42.1-2.3-60.2-6.8l3.5-27.9c13.4,2.4,32.7,4.8,46.4,4.8
		C2216.5,449,2243.1,449.5,2243.1,428.9z"/>
</g>
<g>
	<path class="blue" d="M664.7,87.9h-27.3v90.6h-11V87.9h-27.3l-3.5-9.1h69.1V87.9z"/>
	<path class="blue" d="M656.9,140.4c0-27.6,8.3-39.1,33.3-39.1c25.8,0,32.8,13.5,32.8,34.3c0,2.1-0.1,5-0.2,7.2
		c-8.7,1.5-26.8,3.2-37.4,3.6l-18.1,0.7c1.3,15.6,6,23.6,25.2,23.6c9.9,0,19.1-1.1,26.9-2.1v8.4c-8.7,1.3-16.6,2.5-31,2.5
		C663.5,179.5,656.9,163,656.9,140.4z M687.2,138.4c6.7-0.3,18.1-1.2,25.2-2.1c0.1-1.5,0.2-3.8,0.2-5.3c0-12.9-5.6-21.1-22.3-21.1
		c-19.2,0-23.2,9.8-23.2,29.5L687.2,138.4z"/>
	<path class="blue" d="M744.1,120.7c0,10.2,7.8,11.3,18.8,14.7c15.3,4.7,24,8.6,24,22.7c0,16.8-12.5,21.4-29.1,21.4
		c-8.2,0-16.2-0.8-24.3-2.5v-8.2c6.2,1,14.3,1.8,20.6,1.8c8.9,0,22.1,0,22.1-11.9c0-9.7-6.8-11.4-18.7-14.9
		c-12-3.6-23.9-6.4-23.9-22.1c0-15.9,11-20.4,26.4-20.4c9.6,0,15.7,0.9,23.8,2.5v8c-5.7-1-12.1-1.8-19.1-1.8
		C756,110,744.1,110.2,744.1,120.7z"/>
	<g>
		<path class="blue" d="M811.1,80.8v21.5h17v8.2h-17v47.7c0,10.9,3.7,12.8,13,12.8c1.4,0,2.8-0.1,4.2-0.2v7.9
			c-2.6,0.4-4.9,0.8-7.4,0.8c-14.1,0-20.1-6.1-20.1-19.9v-49.1v-8.2V80.8H811.1z"/>
		<path class="blue" d="M841.7,178.5l30.2-88.8c2.8-8.2,8-11.9,15-11.9c6.8,0,12.2,3.7,14.9,11.9l29.7,88.8H913l-8.4-26.5h-36.7
			l-8.3,26.5H841.7z M900.4,138.9l-14.3-45.1L872,138.9H900.4z"/>
		<path class="blue" d="M956.8,178.5h-16.2v-55c0-19.6,20.6-20.7,30.6-20.7c2.5,0,3.6,0.1,5.8,0.3v12.9c-1.7-0.2-3.6-0.3-5.8-0.3
			c-10.2,0-14.4,1.6-14.4,12.8V178.5z"/>
		<path class="blue" d="M1047,178.5h-16.3v-47.1c0-11.4-2.7-17.2-15.1-17.2c-3.8,0-8.9,1.1-11.7,2.5c-0.3,3.1-0.5,6.8-0.5,10.2v51.6
			h-16.2V108c8.1-4,20.5-6.7,32.3-6.7c8.8,0,14.8,1.8,18.9,4.8c7.1-2.9,15.9-4.8,24.6-4.8c23.8,0,27.3,13,27.3,28.4v48.9h-16.3
			v-47.1c0-11.4-2.7-17.2-15.1-17.2c-3.5,0-9.1,1-13.4,3.3c0.9,3.7,1.2,7.8,1.2,12.2V178.5z"/>
		<path class="blue" d="M1134.1,153.2l16.3-50.9h16.5l-35.5,104.3h-16.5l11.8-33.2l-30.8-71.1h17.2L1134.1,153.2z"/>
	</g>
</g>
<path class="blue" d="M562.3,158.3c-29.6,0.1-72.5,0.2-85.4,0.1c-17.9-65.2-20.9-76.1-21.5-78c-2.6-11.4-10.2-18.7-19.4-18.7
	c-8.7,0-15.9,7-19.3,18.7l-28.2,77.9h-7.3h-66.7h-205c-7.6,0-14.2,4.5-16.9,11.5c-2.7,7.1-0.8,14.8,5,20.1l0.1-0.1
	c1.5,1.3,6,4.5,21,15.3c12.2,8.9,28.4,20.6,44.2,32c25.1,18.1,51,36.9,55.3,39.9l0.1,0.2l0.9,0.5c4.8,3,12.3,6.9,21.3,6.9h70v253.9
	c0,6.3,3.3,12,8.9,15.3c3.2,1.9,6.8,2.9,10.4,2.9c3.3,0,6.6-0.8,9.7-2.4l0.3-0.1l95.1-63.8l0.4-0.3l0.3-0.3c6.1-5.8,6.1-12.7,6-14.6
	v-186c17.6,12.6,37.4,26.7,59.7,42.6c3.4,2.6,8.9,4.4,13.3,4.4c10.9,0,18.1-7.7,18.1-19c0-3-1.4-7.1-1.9-8.2l-27.8-73.4l68.7-42.9
	l0.5-0.4c2.5-2,8.2-7.5,8.2-16.4C580.5,167.7,573,158.3,562.3,158.3z M224.9,268.6L224.9,268.6c-3.3-2.5-14.6-10.6-55.6-40.2
	c-28.9-20.9-61.6-44.5-64.5-46.6c-2.4-2.3-3.2-5.3-2.1-8.1c0.9-2.2,3.1-4.6,6.8-4.6H298c-0.1,0.2-0.2,0.4-0.3,0.6
	c-2.8,6.9-0.9,14.5,5,20.1c0.3,0.3,1,1,117.5,84.2H240.6C235.8,274,230.8,272.3,224.9,268.6z M428.5,481.9l-94.2,63.2
	c-3.1,1.5-6.5,1.4-9.3-0.3c-2.3-1.4-3.7-3.6-3.7-6.1V284.7h109.5v190.9l0,0.2l0.1,0.4C430.9,476.6,430.9,479.4,428.5,481.9z
	 M565.8,183.9l-75.9,47.4l31,81.6c0.5,1.4,1.2,3.7,1.2,4.4c0,3.8-1.3,8.3-7.4,8.3c-2.1,0-5.3-1-6.8-2.2l-0.1-0.1
	C441.5,276,316.2,186.5,309.9,181.8c-2.5-2.5-3.3-5.4-2.2-8.1c1.1-2.8,3.9-4.6,6.9-4.6h66.7h14.8L427,83.9l0.1-0.4
	c1.5-5.4,4.7-11.1,9-11.1c6.4,0,8.7,9.3,8.9,10.4l0.1,0.4c0.7,2.5,13.8,50,21.5,78.1l-0.1,0.1l1.1,3.9c1.1,3.8,4.9,3.9,6.1,3.9
	c0.7,0,1.7,0,2.9,0c2.5,0,6,0,10.2,0c8.4,0,19.6,0,30.8,0c22.4,0,44.7-0.1,44.7-0.1c4.5,0,7.4,4.1,7.4,7
	C569.7,180.1,566.9,182.9,565.8,183.9z"/>
</svg>
