<?xml version="1.0" encoding="utf-8"?>
<!-- Generator: Adobe Illustrator 23.0.0, SVG Export Plug-In . SVG Version: 6.00 Build 0)  -->
<svg version="1.1" id="Layer_1" xmlns="http://www.w3.org/2000/svg" xmlns:xlink="http://www.w3.org/1999/xlink" x="0px" y="0px"
	 viewBox="0 0 340 90" style="enable-background:new 0 0 340 90;" xml:space="preserve">
<style type="text/css">
	.st0{fill:#0B1C49;}
	.st1{fill:url(#SVGID_1_);}
	.st2{fill:url(#SVGID_2_);}
	.st3{fill:url(#SVGID_3_);}
	.st4{fill:url(#SVGID_4_);}
	.st5{fill:url(#SVGID_5_);}
	.st6{fill:url(#SVGID_6_);}
	.st7{fill:#FFFFFF;}
	.st8{fill:url(#SVGID_7_);}
	.st9{fill:url(#SVGID_8_);}
	.st10{fill:url(#SVGID_9_);}
	.st11{fill:url(#SVGID_10_);}
	.st12{fill:url(#SVGID_11_);}
	.st13{fill:url(#SVGID_12_);}
	.st14{fill:url(#SVGID_13_);}
	.st15{fill:url(#SVGID_14_);}
	.st16{fill:url(#SVGID_15_);}
</style>
<g>
	<g>
		<path class="st0" d="M123.5,33.82h-11.68v38.85h-4.71V33.82H95.4l-1.51-3.89h29.61V33.82z"/>
		<path class="st0" d="M120.16,56.33c0-11.85,3.56-16.76,14.29-16.76c11.06,0,14.05,5.78,14.05,14.71c0,0.92-0.04,2.13-0.09,3.1
			c-3.74,0.62-11.48,1.36-16.05,1.54l-7.74,0.31c0.55,6.69,2.57,10.12,10.8,10.12c4.26,0,8.18-0.46,11.54-0.92v3.6
			c-3.74,0.57-7.1,1.08-13.28,1.08C122.98,73.11,120.16,66.01,120.16,56.33z M133.15,55.45c2.86-0.13,7.78-0.51,10.79-0.9
			c0.05-0.66,0.07-1.61,0.07-2.29c0-5.54-2.42-9.06-9.55-9.06c-8.22,0-9.94,4.22-9.94,12.66L133.15,55.45z"/>
		<path class="st0" d="M157.53,47.89c0,4.36,3.36,4.84,8.05,6.29c6.57,2.04,10.27,3.7,10.27,9.74c0,7.21-5.35,9.19-12.47,9.19
			c-3.5,0-6.95-0.33-10.4-1.08v-3.5c2.68,0.44,6.13,0.77,8.84,0.77c3.83,0,9.48,0,9.48-5.12c0-4.14-2.9-4.88-8-6.4
			c-5.14-1.54-10.24-2.75-10.24-9.46c0-6.82,4.71-8.75,11.3-8.75c4.11,0,6.71,0.37,10.2,1.08v3.45c-2.44-0.42-5.19-0.79-8.18-0.79
			C162.65,43.3,157.53,43.39,157.53,47.89z"/>
		<g>
			<path class="st0" d="M186.25,30.78V40h7.28v3.52h-7.28v20.43c0,4.66,1.59,5.5,5.56,5.5c0.6,0,1.19-0.04,1.78-0.09v3.39
				c-1.1,0.18-2.09,0.35-3.17,0.35c-6.03,0-8.6-2.6-8.6-8.55V43.52V40v-9.22H186.25z"/>
			<path class="st0" d="M199.37,72.67l12.95-38.08c1.19-3.5,3.45-5.1,6.42-5.1c2.94,0,5.21,1.59,6.38,5.1l12.75,38.08h-7.92
				l-3.61-11.35h-15.74l-3.56,11.35H199.37z M224.55,55.68l-6.15-19.33l-6.05,19.33H224.55z"/>
			<path class="st0" d="M248.72,72.67h-6.95V49.08c0-8.42,8.84-8.86,13.11-8.86c1.08,0,1.54,0.04,2.49,0.13v5.54
				c-0.73-0.09-1.56-0.13-2.49-0.13c-4.36,0-6.16,0.66-6.16,5.48V72.67z"/>
			<path class="st0" d="M287.39,72.67h-6.97V52.47c0-4.9-1.18-7.39-6.46-7.39c-1.65,0-3.8,0.46-5.01,1.08
				c-0.15,1.32-0.2,2.92-0.2,4.38v22.12h-6.95V42.42c3.47-1.71,8.79-2.86,13.87-2.86c3.76,0,6.35,0.77,8.11,2.05
				c3.05-1.23,6.82-2.05,10.53-2.05c10.22,0,11.72,5.56,11.72,12.16v20.95h-6.97V52.47c0-4.9-1.18-7.39-6.46-7.39
				c-1.5,0-3.91,0.42-5.74,1.43c0.4,1.59,0.53,3.36,0.53,5.21V72.67z"/>
			<path class="st0" d="M324.71,61.83L331.7,40h7.06l-15.21,44.7h-7.06l5.06-14.23L308.37,40h7.37L324.71,61.83z"/>
		</g>
	</g>
	<g>
		<linearGradient id="SVGID_1_" gradientUnits="userSpaceOnUse" x1="53.1167" y1="90" x2="53.1167" y2="28.8723">
			<stop  offset="0" style="stop-color:#0A69C6"/>
			<stop  offset="1" style="stop-color:#0B1C49"/>
		</linearGradient>
		<path class="st1" d="M41.94,36.01c0,0,0,51.5,0,51.6c0,1.83,2.13,2.99,3.92,2.06l17.62-11.82c0.93-0.88,0.8-1.95,0.8-1.95V28.87
			L41.94,36.01z"/>
		<linearGradient id="SVGID_2_" gradientUnits="userSpaceOnUse" x1="1.2364" y1="28.6986" x2="77.4775" y2="28.6986">
			<stop  offset="0" style="stop-color:#26DDCB"/>
			<stop  offset="1" style="stop-color:#0B1C49"/>
		</linearGradient>
		<path class="st2" d="M58.07,17.96H3.59c-2.14,0-3.21,2.59-1.52,4.12C2.09,22.11,24.48,38.27,24.5,38.3
			c0.98,0.6,2.13,1.14,3.44,1.14h49.54L58.07,17.96z"/>
		<linearGradient id="SVGID_3_" gradientUnits="userSpaceOnUse" x1="55.9265" y1="37.8498" x2="82.2439" y2="11.5325">
			<stop  offset="0" style="stop-color:#26BC9C"/>
			<stop  offset="0.1932" style="stop-color:#3CD398"/>
			<stop  offset="0.5806" style="stop-color:#66FF92"/>
		</linearGradient>
		<path class="st3" d="M75.47,30.91l13.46-8.4c0.46-0.37,1.15-1.16,1.15-2.26c0-1.06-0.96-2.3-2.37-2.3c0,0-0.62,0-16.63,0
			c0,0-4.16-15.13-4.19-15.24C66.6,1.45,65.76,0,64.25,0c-1.26,0-2.18,1.2-2.63,2.79l-5.5,15.17H41.67c-1.96,0-3.32,2.39-1.51,4.12
			c0.18,0.17,36.81,26.32,36.81,26.32c0.46,0.35,1.26,0.62,1.88,0.62c1.5,0,2.37-1.04,2.37-2.54c0-0.43-0.28-1.18-0.28-1.18
			L75.47,30.91z"/>
	</g>
</g>
</svg>
